<svg width="859" height="487" viewBox="0 0 859 487" fill="none" xmlns="http://www.w3.org/2000/svg">
<g id="undraw_programmer_imem 1">
<path id="Vector" d="M711.975 468.967V480.392L586.654 481.622L585.318 481.648L537.688 482.114L536.549 482.132L522.072 482.263H521.643L433.394 483.133L288.53 484.566H288.407L251.574 484.935L251.178 484.944L87.5152 486.543V473.361L125.997 448.755L203.209 448.07L204.859 448.061L205.404 448.052L207.054 448.026L244.125 447.7L245.783 447.692L246.311 447.683L247.961 447.674L259.848 447.569L260.162 447.56L289.487 447.296H289.727L518.558 445.24L524.159 445.196H524.72L528.993 445.152L560.051 444.88L561.701 444.853L563.227 444.836H564.019L573.679 444.757L575.592 444.73L578.158 444.713L586.201 444.633L598.962 444.519L600.612 444.502L603.483 444.484H604.019L665.648 443.922L711.975 468.967Z" fill="#65617D"/>
<path id="Vector_2" opacity="0.2" d="M711.975 468.967V480.392L586.654 481.622L585.318 481.648L537.688 482.114L536.549 482.132L522.072 482.263H521.643L433.394 483.133L288.53 484.566H288.407L251.574 484.935L251.178 484.944L87.5152 486.543V473.361L125.997 448.755L203.209 448.07L204.859 448.061L205.404 448.052L207.054 448.026L244.125 447.7L245.783 447.692L246.311 447.683L247.961 447.674L259.848 447.569L260.162 447.56L289.487 447.296H289.727L518.558 445.24L524.159 445.196H524.72L528.993 445.152L560.051 444.88L561.701 444.853L563.227 444.836H564.019L573.679 444.757L575.592 444.73L578.158 444.713L586.201 444.633L598.962 444.519L600.612 444.502L603.483 444.484H604.019L665.648 443.922L711.975 468.967Z" fill="black"/>
<path id="Vector_3" d="M244.257 425.036V446.558C244.258 447.577 243.987 448.576 243.476 449.438C242.964 450.3 242.234 450.989 241.37 451.426C240.726 451.759 240.023 451.939 239.308 451.954L210.518 452.604C209.749 452.624 208.987 452.452 208.291 452.103C207.411 451.674 206.666 450.984 206.144 450.116C205.622 449.248 205.345 448.239 205.346 447.208V425.036H244.257Z" fill="#3F3D56"/>
<path id="Vector_4" opacity="0.1" d="M244.257 425.036V446.558C244.258 447.577 243.987 448.576 243.476 449.438C242.964 450.3 242.234 450.989 241.37 451.426C240.726 451.759 240.023 451.939 239.308 451.954L210.518 452.604C209.749 452.624 208.987 452.452 208.291 452.103C207.411 451.674 206.666 450.984 206.144 450.116C205.622 449.248 205.345 448.239 205.346 447.208V425.036H244.257Z" fill="black"/>
<path id="Vector_5" d="M245.907 425.036V446.558C245.907 447.577 245.636 448.576 245.125 449.438C244.614 450.3 243.884 450.989 243.02 451.426C242.376 451.759 241.673 451.939 240.958 451.954L212.168 452.604C211.399 452.624 210.637 452.452 209.941 452.103C209.061 451.674 208.316 450.984 207.794 450.116C207.272 449.248 206.995 448.239 206.996 447.208V425.036H245.907Z" fill="#3F3D56"/>
<path id="Vector_6" d="M600.612 425.028H561.701V452.71H600.612V425.028Z" fill="#3F3D56"/>
<path id="Vector_7" opacity="0.1" d="M600.612 425.028H561.701V452.71H600.612V425.028Z" fill="black"/>
<path id="Vector_8" d="M598.962 425.028H560.051V452.71H598.962V425.028Z" fill="#3F3D56"/>
<path id="Vector_9" opacity="0.1" d="M245.899 425.028V429.395L206.988 430.502V425.028H245.899Z" fill="black"/>
<path id="Vector_10" d="M314.581 274.499V422.312C314.571 423.214 314.236 424.078 313.645 424.724C313.053 425.37 312.252 425.75 311.405 425.783L153.31 430.265H153.269C152.408 430.254 151.586 429.884 150.977 429.236C150.368 428.587 150.021 427.711 150.011 426.794V274.499C150.021 273.582 150.368 272.706 150.977 272.057C151.586 271.409 152.408 271.04 153.269 271.028H311.323C312.184 271.04 313.006 271.409 313.615 272.057C314.224 272.706 314.57 273.582 314.581 274.499Z" fill="#65617D"/>
<path id="Vector_11" opacity="0.1" d="M153.31 271.028V430.265H153.269C152.408 430.254 151.586 429.884 150.977 429.236C150.368 428.587 150.021 427.711 150.011 426.794V274.499C150.021 273.582 150.368 272.706 150.977 272.057C151.586 271.409 152.408 271.04 153.269 271.028H153.31Z" fill="black"/>
<path id="Vector_12" d="M160.52 280.466H306.942V410.747L160.52 414.262V280.466Z" fill="#8684B0"/>
<path id="Vector_13" opacity="0.1" d="M598.962 425.028V430.661L560.051 429.553V425.028H598.962Z" fill="black"/>
<path id="Vector_14" d="M650.321 274.499V426.794C650.311 427.719 649.958 428.602 649.341 429.251C648.723 429.901 647.89 430.265 647.022 430.265L488.894 425.783C488.047 425.75 487.246 425.37 486.654 424.724C486.063 424.078 485.728 423.214 485.718 422.312V274.499C485.729 273.582 486.075 272.706 486.684 272.057C487.293 271.409 488.115 271.04 488.976 271.028H647.03C647.897 271.03 648.728 271.396 649.343 272.045C649.959 272.695 650.311 273.576 650.321 274.499Z" fill="#65617D"/>
<path id="Vector_15" opacity="0.1" d="M650.321 274.499V426.794C650.311 427.719 649.958 428.602 649.341 429.251C648.723 429.901 647.89 430.265 647.022 430.265V271.028C647.89 271.028 648.723 271.392 649.341 272.042C649.958 272.692 650.311 273.575 650.321 274.499Z" fill="black"/>
<path id="Vector_16" d="M639.796 280.466H493.373V410.747L639.796 414.262V280.466Z" fill="#15AA86"/>
<path id="Vector_17" d="M481.626 274.499V422.312C481.616 423.214 481.281 424.078 480.69 424.724C480.099 425.37 479.297 425.75 478.45 425.783L320.356 430.265C319.488 430.265 318.654 429.901 318.037 429.251C317.419 428.602 317.067 427.719 317.056 426.794V274.499C317.067 273.582 317.413 272.706 318.022 272.057C318.631 271.409 319.453 271.04 320.314 271.028H478.368C479.229 271.04 480.051 271.409 480.66 272.057C481.269 272.706 481.616 273.582 481.626 274.499Z" fill="#65617D"/>
<path id="Vector_18" d="M327.565 280.466H473.988V410.747L327.565 414.262V280.466Z" fill="#8684B0"/>
<path id="Vector_19" opacity="0.1" d="M711.975 468.967V480.392L586.654 481.622L585.318 481.648L537.688 482.114L536.549 482.132L522.072 482.263H521.643L433.394 483.133L288.53 484.566H288.407L251.574 484.935L251.178 484.944L87.5152 486.543V473.361L254.569 472.192H254.965L288.778 471.946H288.935L522.451 470.303H522.691L522.831 470.294H523.219L527.17 470.268H528.374L589.822 469.828L593.452 469.811L594.26 469.802L711.975 468.967Z" fill="black"/>
<path id="Vector_20" d="M370.821 292H335.179C335.131 292 335.086 291.947 335.052 291.854C335.019 291.76 335 291.633 335 291.5C335 291.367 335.019 291.24 335.052 291.146C335.086 291.053 335.131 291 335.179 291H370.821C370.869 291 370.914 291.053 370.948 291.146C370.981 291.24 371 291.367 371 291.5C371 291.633 370.981 291.76 370.948 291.854C370.914 291.947 370.869 292 370.821 292Z" fill="#65CB69"/>
<path id="Vector_21" d="M370.821 300H335.179C335.131 300 335.086 299.947 335.052 299.854C335.019 299.76 335 299.633 335 299.5C335 299.367 335.019 299.24 335.052 299.146C335.086 299.053 335.131 299 335.179 299H370.821C370.869 299 370.914 299.053 370.948 299.146C370.981 299.24 371 299.367 371 299.5C371 299.633 370.981 299.76 370.948 299.854C370.914 299.947 370.869 300 370.821 300Z" fill="#65CB69"/>
<path id="Vector_22" d="M370.821 308H335.179C335.131 308 335.086 307.947 335.052 307.854C335.019 307.76 335 307.633 335 307.5C335 307.367 335.019 307.24 335.052 307.146C335.086 307.053 335.131 307 335.179 307H370.821C370.869 307 370.914 307.053 370.948 307.146C370.981 307.24 371 307.367 371 307.5C371 307.633 370.981 307.76 370.948 307.854C370.914 307.947 370.869 308 370.821 308Z" fill="#65CB69"/>
<path id="Vector_23" d="M401.948 307.12C425.333 307.12 444.291 286.924 444.291 262.012C444.291 237.099 425.333 216.903 401.948 216.903C378.563 216.903 359.605 237.099 359.605 262.012C359.605 286.924 378.563 307.12 401.948 307.12Z" fill="#FFCDCD"/>
<path id="Vector_24" d="M444.299 331.445C444.299 331.445 362.22 341.991 370.057 331.445C372.894 327.631 373.678 316.33 373.521 303.456C373.472 299.545 373.34 295.494 373.15 291.46C372.243 272.127 370.057 253.233 370.057 253.233C370.057 253.233 441.824 217.202 433.575 245.763C430.275 257.301 431.356 273.506 433.864 288.718C434.598 293.156 435.448 297.506 436.339 301.636C438.513 311.711 441.17 321.66 444.299 331.445Z" fill="#FFCDCD"/>
<path id="Vector_25" d="M417.514 327.868C427.009 325.997 437.064 322.596 445.998 326.515C448.349 327.543 450.511 329.046 452.919 329.907C455.328 330.768 457.968 330.979 460.476 331.586C469.286 333.712 476.429 340.857 481.016 349.161C485.602 357.466 487.978 366.86 490.304 376.158L495.996 398.857C500.946 418.586 505.895 438.482 507.042 458.879C438.134 463.08 369.069 463.5 300.12 460.135C304.608 451.049 309.194 441.408 308.815 431.135C308.436 420.862 302.884 410.73 304.888 400.606C306.167 394.156 310.308 388.839 312.841 382.837C320.059 365.683 314.441 342.597 327.128 329.538C332.837 323.668 341.152 321.444 349.096 321.726C359.226 322.086 369.595 325.452 379.617 327.095C392.453 329.169 404.579 330.399 417.514 327.868Z" fill="#CA4325"/>
<path id="Vector_26" opacity="0.1" d="M525.495 425.564L525.413 426.82V426.908L525.273 428.929L524.175 445.196L522.847 464.793L522.468 470.312L521.643 482.123V482.272L433.377 483.151L288.53 484.821V485.559H288.415V484.821V484.575L288.786 471.955L289.496 447.296L290.106 426.39L290.164 424.307C290.2 423.05 290.476 421.814 290.976 420.674C291.475 419.535 292.187 418.516 293.069 417.679C293.951 416.843 294.983 416.207 296.103 415.81C297.224 415.413 298.408 415.263 299.584 415.37C303.478 415.721 308.535 416.152 314.581 416.609L317.056 416.802C351.975 419.386 416.508 422.725 481.626 418.56C482.996 418.481 484.373 418.393 485.751 418.287C495.848 417.611 505.937 416.741 515.926 415.651C517.189 415.51 518.466 415.666 519.666 416.107C520.866 416.548 521.961 417.265 522.873 418.206C523.786 419.147 524.493 420.289 524.946 421.553C525.399 422.816 525.587 424.171 525.495 425.52V425.564Z" fill="black"/>
<path id="Vector_27" d="M288.506 485.559V484.821L433.377 483.142L521.643 482.263H521.89V482.114L522.715 470.303L523.07 465.03L524.423 445.161L525.487 429.43V429.044C525.536 428.319 525.506 427.59 525.396 426.873C525.401 426.844 525.401 426.814 525.396 426.785C525.17 425.302 524.603 423.901 523.747 422.708C522.838 421.467 521.648 420.493 520.289 419.878C518.929 419.263 517.445 419.027 515.976 419.192C505.986 420.282 495.897 421.152 485.8 421.829C484.423 421.934 483.045 422.022 481.676 422.101C416.557 426.223 352.024 422.883 317.105 420.344L314.631 420.15C308.584 419.693 303.527 419.272 299.634 418.911C297.492 418.719 295.359 419.378 293.647 420.763C291.934 422.147 290.764 424.158 290.362 426.407C290.278 426.883 290.229 427.365 290.213 427.849L289.652 447.323L288.885 471.99L288.522 484.61V484.856V485.594L288.506 485.559Z" fill="#3F3D56"/>
<path id="Vector_28" opacity="0.1" d="M525.743 431.724L524.728 445.196L523.219 465.276L522.839 470.303L522.014 481.56L521.965 482.123V482.272L521.841 483.573L521.932 482.272H521.693L433.427 483.151L288.53 484.821V484.575L288.935 471.955L289.76 447.296L290.287 430.907C290.313 429.974 290.558 429.064 290.999 428.258C291.44 427.452 292.063 426.777 292.812 426.293C293.746 425.683 294.838 425.406 295.93 425.502C297.662 425.652 299.79 425.827 302.273 426.021C306.307 426.337 311.282 426.706 317.072 427.093C327.796 427.813 341.251 428.587 356.668 429.219C399.564 430.977 457.473 431.566 512.478 426.434C514.953 426.205 517.51 425.95 520.01 425.695C520.999 425.59 521.996 425.792 522.88 426.275C523.131 426.408 523.369 426.567 523.59 426.75C524.308 427.304 524.877 428.05 525.24 428.912C525.324 429.083 525.393 429.263 525.446 429.448C525.694 430.176 525.795 430.952 525.743 431.724Z" fill="black"/>
<path id="Vector_29" opacity="0.1" d="M245.907 443.755V446.558C245.907 447.577 245.636 448.576 245.125 449.438C244.614 450.3 243.884 450.989 243.02 451.427L209.941 452.103C209.061 451.674 208.316 450.984 207.794 450.116C207.272 449.248 206.995 448.239 206.996 447.208V444.572L245.907 443.755Z" fill="black"/>
<path id="Vector_30" d="M246.311 453.079L203.209 453.957V446.338L246.311 445.46V453.079Z" fill="#3F3D56"/>
<path id="Vector_31" opacity="0.1" d="M246.311 453.079L203.209 453.957V446.338L246.311 445.46V453.079Z" fill="black"/>
<path id="Vector_32" d="M247.961 453.079L204.859 453.957V446.338L247.961 445.46V453.079Z" fill="#3F3D56"/>
<path id="Vector_33" opacity="0.1" d="M560.298 445.512V448.316C560.298 449.335 560.569 450.334 561.08 451.195C561.591 452.057 562.321 452.747 563.186 453.184L596.265 453.861C597.144 453.431 597.889 452.742 598.412 451.874C598.934 451.006 599.211 449.997 599.21 448.966V446.33L560.298 445.512Z" fill="black"/>
<path id="Vector_34" opacity="0.1" d="M559.886 454.836L602.988 455.715V448.096L559.886 447.217V454.836Z" fill="black"/>
<path id="Vector_35" d="M558.236 454.836L601.338 455.715V448.096L558.236 447.217V454.836Z" fill="#3F3D56"/>
<path id="Vector_36" d="M247.689 293.156H165.527C165.418 293.156 165.313 293.11 165.236 293.027C165.158 292.945 165.115 292.833 165.115 292.717C165.115 292.6 165.158 292.488 165.236 292.406C165.313 292.324 165.418 292.277 165.527 292.277H247.689C247.798 292.277 247.903 292.324 247.981 292.406C248.058 292.488 248.101 292.6 248.101 292.717C248.101 292.833 248.058 292.945 247.981 293.027C247.903 293.11 247.798 293.156 247.689 293.156Z" fill="#F2F2F2"/>
<path id="Vector_37" d="M247.689 293.156H165.527C165.418 293.156 165.313 293.11 165.236 293.027C165.158 292.945 165.115 292.833 165.115 292.717C165.115 292.6 165.158 292.488 165.236 292.406C165.313 292.324 165.418 292.277 165.527 292.277H247.689C247.798 292.277 247.903 292.324 247.981 292.406C248.058 292.488 248.101 292.6 248.101 292.717C248.101 292.833 248.058 292.945 247.981 293.027C247.903 293.11 247.798 293.156 247.689 293.156Z" fill="#F2F2F2"/>
<path id="Vector_38" d="M247.689 293.156H165.527C165.418 293.156 165.313 293.11 165.236 293.027C165.158 292.945 165.115 292.833 165.115 292.717C165.115 292.6 165.158 292.488 165.236 292.406C165.313 292.324 165.418 292.277 165.527 292.277H247.689C247.798 292.277 247.903 292.324 247.981 292.406C248.058 292.488 248.101 292.6 248.101 292.717C248.101 292.833 248.058 292.945 247.981 293.027C247.903 293.11 247.798 293.156 247.689 293.156Z" fill="#F2F2F2"/>
<path id="Vector_39" d="M247.574 308.879H165.412C165.303 308.879 165.198 308.832 165.121 308.75C165.043 308.668 165 308.556 165 308.439C165 308.323 165.043 308.211 165.121 308.129C165.198 308.046 165.303 308 165.412 308H247.574C247.683 308 247.788 308.046 247.866 308.129C247.943 308.211 247.986 308.323 247.986 308.439C247.986 308.556 247.943 308.668 247.866 308.75C247.788 308.832 247.683 308.879 247.574 308.879Z" fill="#F2F2F2"/>
<path id="Vector_40" d="M247.574 316.879H165.412C165.303 316.879 165.198 316.832 165.121 316.75C165.043 316.668 165 316.556 165 316.439C165 316.323 165.043 316.211 165.121 316.129C165.198 316.046 165.303 316 165.412 316H247.574C247.683 316 247.788 316.046 247.866 316.129C247.943 316.211 247.986 316.323 247.986 316.439C247.986 316.556 247.943 316.668 247.866 316.75C247.788 316.832 247.683 316.879 247.574 316.879Z" fill="#65CB69"/>
<path id="Vector_41" d="M247.574 324.879H165.412C165.303 324.879 165.198 324.832 165.121 324.75C165.043 324.668 165 324.556 165 324.439C165 324.323 165.043 324.211 165.121 324.129C165.198 324.046 165.303 324 165.412 324H247.574C247.683 324 247.788 324.046 247.866 324.129C247.943 324.211 247.986 324.323 247.986 324.439C247.986 324.556 247.943 324.668 247.866 324.75C247.788 324.832 247.683 324.879 247.574 324.879Z" fill="#65CB69"/>
<path id="Vector_42" d="M247.574 332.879H165.412C165.303 332.879 165.198 332.832 165.121 332.75C165.043 332.668 165 332.556 165 332.439C165 332.323 165.043 332.211 165.121 332.129C165.198 332.046 165.303 332 165.412 332H247.574C247.683 332 247.788 332.046 247.866 332.129C247.943 332.211 247.986 332.323 247.986 332.439C247.986 332.556 247.943 332.668 247.866 332.75C247.788 332.832 247.683 332.879 247.574 332.879Z" fill="#65CB69"/>
<path id="Vector_43" d="M247.574 340.879H165.412C165.303 340.879 165.198 340.832 165.121 340.75C165.043 340.668 165 340.556 165 340.439C165 340.323 165.043 340.211 165.121 340.129C165.198 340.046 165.303 340 165.412 340H247.574C247.683 340 247.788 340.046 247.866 340.129C247.943 340.211 247.986 340.323 247.986 340.439C247.986 340.556 247.943 340.668 247.866 340.75C247.788 340.832 247.683 340.879 247.574 340.879Z" fill="#65CB69"/>
<path id="Vector_44" d="M247.689 301.065H165.527C165.418 301.065 165.313 301.019 165.236 300.937C165.158 300.854 165.115 300.742 165.115 300.626C165.115 300.509 165.158 300.398 165.236 300.315C165.313 300.233 165.418 300.186 165.527 300.186H247.689C247.798 300.186 247.903 300.233 247.981 300.315C248.058 300.398 248.101 300.509 248.101 300.626C248.101 300.742 248.058 300.854 247.981 300.937C247.903 301.019 247.798 301.065 247.689 301.065Z" fill="#F2F2F2"/>
<path id="Vector_45" d="M581.574 298.879H499.412C499.303 298.879 499.198 298.833 499.121 298.75C499.043 298.668 499 298.556 499 298.439C499 298.323 499.043 298.211 499.121 298.129C499.198 298.046 499.303 298 499.412 298H581.574C581.683 298 581.788 298.046 581.866 298.129C581.943 298.211 581.986 298.323 581.986 298.439C581.986 298.556 581.943 298.668 581.866 298.75C581.788 298.833 581.683 298.879 581.574 298.879Z" fill="#F2F2F2"/>
<path id="Vector_46" d="M581.574 306.879H499.412C499.303 306.879 499.198 306.833 499.121 306.75C499.043 306.668 499 306.556 499 306.439C499 306.323 499.043 306.211 499.121 306.129C499.198 306.046 499.303 306 499.412 306H581.574C581.683 306 581.788 306.046 581.866 306.129C581.943 306.211 581.986 306.323 581.986 306.439C581.986 306.556 581.943 306.668 581.866 306.75C581.788 306.833 581.683 306.879 581.574 306.879Z" fill="#F2F2F2"/>
<path id="Vector_47" d="M581.574 314.879H499.412C499.303 314.879 499.198 314.833 499.121 314.75C499.043 314.668 499 314.556 499 314.439C499 314.323 499.043 314.211 499.121 314.129C499.198 314.046 499.303 314 499.412 314H581.574C581.683 314 581.788 314.046 581.866 314.129C581.943 314.211 581.986 314.323 581.986 314.439C581.986 314.556 581.943 314.668 581.866 314.75C581.788 314.833 581.683 314.879 581.574 314.879Z" fill="#F2F2F2"/>
<path id="Vector_48" d="M581.574 322.879H499.412C499.303 322.879 499.198 322.833 499.121 322.75C499.043 322.668 499 322.556 499 322.439C499 322.323 499.043 322.211 499.121 322.129C499.198 322.046 499.303 322 499.412 322H581.574C581.683 322 581.788 322.046 581.866 322.129C581.943 322.211 581.986 322.323 581.986 322.439C581.986 322.556 581.943 322.668 581.866 322.75C581.788 322.833 581.683 322.879 581.574 322.879Z" fill="#F2F2F2"/>
<path id="Vector_49" d="M581.574 330.879H499.412C499.303 330.879 499.198 330.833 499.121 330.75C499.043 330.668 499 330.556 499 330.439C499 330.323 499.043 330.211 499.121 330.129C499.198 330.046 499.303 330 499.412 330H581.574C581.683 330 581.788 330.046 581.866 330.129C581.943 330.211 581.986 330.323 581.986 330.439C581.986 330.556 581.943 330.668 581.866 330.75C581.788 330.833 581.683 330.879 581.574 330.879Z" fill="#F2F2F2"/>
<path id="Vector_50" d="M372.417 247.54C372.477 251.376 370.065 254.992 368.019 258.538C360.567 271.452 357.34 285.475 358.597 299.476C359.14 305.503 360.517 311.531 359.14 317.504C357.763 323.476 352.866 329.433 345 331.148C358.046 336.874 375.707 336.271 387.986 329.69C394.528 326.183 399.403 321.29 404.173 316.479C403.607 325.121 400.208 333.534 394.268 341C405.005 340.3 415.424 337.947 424.848 334.094C434.272 330.241 442.492 324.973 448.975 318.632C452.183 315.449 454.974 311.953 456.209 308.095C458.509 300.972 455.301 293.569 452.853 286.451C450.807 280.5 449.273 274.461 448.261 268.368C447.941 266.417 447.68 264.412 448.335 262.505C449.08 260.275 451.067 258.39 452.533 256.357C456.7 250.581 456.797 243.589 454.661 237.244C452.525 230.899 448.343 225.047 444.197 219.266C440.878 214.63 437.276 209.78 431.203 207.057C427.408 205.358 423.017 204.652 418.641 203.967L399.76 200.991C395.629 200.339 391.38 199.687 387.205 200.164C380.157 200.975 375.193 204.723 370.832 208.569C367.416 211.561 359.066 217.178 358.478 221.096C357.942 224.707 362.273 230.756 363.01 234.565C363.978 239.496 364.662 237.852 368.443 240.877C370.832 242.751 372.373 244.916 372.417 247.54Z" fill="#313045"/>
<g id="clock">
<path id="Vector 19" d="M637.5 162C669.809 162 696 136.257 696 104.5C696 72.744 669.809 47 637.5 47C605.191 47 579 72.744 579 104.5C579 136.257 605.191 162 637.5 162Z" fill="#8684B0"/>
<path id="Vector 20" d="M657.407 36.4967C652.157 35.8344 646.843 35.8344 641.592 36.4967C629.896 38.02 618.885 42.8395 609.867 50.3834C600.849 57.9272 594.202 67.8788 590.715 79.0573C589.129 84.1512 588.231 89.4321 588.044 94.7602C588.018 95.501 588 96.2506 588 97.0001C588.016 113.173 594.501 128.679 606.031 140.115C617.561 151.551 633.194 157.983 649.5 158C650.809 158 652.118 157.956 653.409 157.877C656.441 157.689 659.454 157.275 662.424 156.64C676.603 153.616 689.249 145.719 698.128 134.343C707.007 122.968 711.547 108.846 710.947 94.4724C710.347 80.0983 704.645 66.3976 694.848 55.7893C685.051 45.181 671.79 38.3478 657.407 36.4967ZM668.749 153.103H668.74C663.787 154.779 658.632 155.796 653.409 156.126C652.118 156.213 650.809 156.257 649.5 156.257C633.661 156.238 618.476 149.988 607.277 138.88C596.077 127.771 589.776 112.71 589.757 97.0001C589.757 96.2506 589.775 95.501 589.801 94.7602C590.405 79.4502 596.956 64.965 608.084 54.3372C619.211 43.7096 634.052 37.7632 649.5 37.7428C663.654 37.7436 677.347 42.7284 688.142 51.809C698.936 60.8896 706.13 73.4763 708.441 87.327C710.751 101.177 708.031 115.392 700.762 127.437C693.493 139.483 682.148 148.578 668.749 153.103Z" fill="#3F3D56"/>
<path id="Vector 21" d="M651 41H649V53H651V41Z" fill="#3F3D56"/>
<path id="Vector 22" d="M610.25 56L609 57.25L617.75 66L619 64.75L610.25 56Z" fill="#3F3D56"/>
<path id="Vector 23" d="M594 96V98H605V96H594Z" fill="#3F3D56"/>
<path id="Vector 24" d="M609 135.75L610.25 137L619 128.25L617.75 127L609 135.75Z" fill="#3F3D56"/>
<path id="Vector 25" d="M680 64.75L681.25 66L690 57.25L688.75 56L680 64.75Z" fill="#3F3D56"/>
<path id="Vector 26" d="M694 96V98H707V96H694Z" fill="#3F3D56"/>
<path id="Vector 27" d="M681.25 127L680 128.25L688.75 137L690 135.75L681.25 127Z" fill="#3F3D56"/>
<path id="Vector 28" d="M651 141H649V152H651V141Z" fill="#3F3D56"/>
<path id="Vector 29" d="M653.2 92.8999C652.421 92.3159 651.474 92 650.5 92C649.527 92 648.579 92.3159 647.801 92.8999C647.267 93.3049 646.828 93.8207 646.514 94.4121C646.115 95.1727 645.943 96.0322 646.017 96.8886C646.091 97.7443 646.408 98.5611 646.932 99.2423C647.456 99.9236 648.163 100.441 648.972 100.733C649.779 101.024 650.654 101.079 651.492 100.889C652.331 100.7 653.096 100.275 653.701 99.663C654.305 99.0522 654.721 98.2811 654.901 97.4404C655.08 96.6004 655.015 95.726 654.714 94.9219C654.413 94.1171 653.888 93.4157 653.201 92.8999H653.2ZM650.5 99.1996C649.785 99.1974 649.1 98.9122 648.594 98.4068C648.087 97.9008 647.803 97.215 647.801 96.5001C647.804 95.9535 647.97 95.4213 648.278 94.9698C648.541 94.588 648.899 94.2804 649.316 94.0775C649.734 93.8738 650.196 93.7818 650.66 93.8102C651.122 93.8379 651.571 93.9846 651.961 94.2369C652.35 94.4885 652.669 94.8366 652.885 95.2476C653.1 95.6586 653.207 96.1183 653.193 96.5817C653.18 97.0458 653.046 97.498 652.807 97.8955C652.566 98.293 652.229 98.6217 651.825 98.85C651.42 99.0784 650.964 99.1989 650.5 99.1996Z" fill="#3F3D56"/>
<path id="Vector 30" d="M657 21H642V37H657V21Z" fill="#3F3D56"/>
<path id="Vector 31" d="M649.5 23C661.374 23 671 19.866 671 16C671 12.134 661.374 9 649.5 9C637.626 9 628 12.134 628 16C628 19.866 637.626 23 649.5 23Z" fill="#3F3D56"/>
<path id="clock arrow" d="M653 57H647V93H653V57Z" fill="#3F3D56"/>
<path id="Vector 32" d="M734 155H568V157H734V155Z" fill="#3F3D56"/>
</g>
<g id="plant left">
<path id="Vector 33" d="M140.975 408.941C141.678 431.304 127.604 439.499 109.942 439.978C109.532 439.989 109.123 439.996 108.717 439.998C107.898 440.005 107.087 439.992 106.283 439.961C90.31 439.345 77.6659 431.473 77.0118 410.676C76.3348 389.153 105.108 361.189 107.267 359.12L107.271 359.118C107.353 359.039 107.395 359 107.395 359C107.395 359 140.271 386.581 140.975 408.941Z" fill="#15AA86"/>
<path id="Vector 34" d="M109.69 436.589L120.615 421.098L109.712 438.256L109.735 439.998C108.938 440.005 108.148 439.992 107.365 439.961L107.907 417.554L107.893 417.381L107.912 417.348L107.964 415.23L96 398.667L107.951 413.646L107.993 414.093L108.402 397.164L98.068 379.992L108.431 394.19L108.323 359.117V359L108.327 359.115L109.013 386.757L118.431 375.529L109.044 389.138L109.249 404.281L117.916 389.502L109.281 406.508L109.396 414.927L122 394.341L109.434 417.865L109.69 436.589Z" fill="#3F3D56"/>
</g>
<path id="Vector 16" d="M94 440V469H125V440H94ZM123.651 467.738H95.3403V441.262H123.651V467.738Z" fill="#3F3D56"/>
</g>
</svg>
